<?xml version="1.0" standalone="no"?>
<!DOCTYPE svg PUBLIC "-//W3C//DTD SVG 20010904//EN"
 "http://www.w3.org/TR/2001/REC-SVG-20010904/DTD/svg10.dtd">
<svg version="1.0" xmlns="http://www.w3.org/2000/svg"
 width="1024.000000pt" height="1024.000000pt" viewBox="0 0 1024.000000 1024.000000"
 preserveAspectRatio="xMidYMid meet">
<metadata>
Created by potrace 1.11, written by Peter Selinger 2001-2013
</metadata>
<g transform="translate(0.000000,1024.000000) scale(0.100000,-0.100000)"
fill="#000000" stroke="none">
<path d="M695 6350 c-52 -21 -50 22 -50 -906 l0 -863 22 -22 c14 -15 38 -23
72 -27 46 -4 53 -2 82 27 31 32 31 32 27 116 -2 47 -3 85 -2 85 1 0 13 -19 27
-43 31 -53 111 -128 165 -156 148 -75 360 -63 510 28 224 138 327 517 237 865
-41 158 -143 291 -269 351 -185 88 -410 68 -552 -49 -20 -16 -55 -55 -78 -86
l-41 -55 3 342 4 343 -30 30 c-24 23 -39 30 -69 29 -21 0 -47 -4 -58 -9z m687
-698 c89 -39 146 -109 189 -228 30 -84 38 -302 15 -405 -42 -189 -136 -292
-295 -321 -195 -36 -374 101 -427 328 -18 78 -20 237 -3 314 35 166 136 285
277 326 64 18 187 12 244 -14z"/>
<path d="M3773 5849 c-164 -27 -299 -128 -333 -247 -15 -57 -11 -171 8 -228
22 -62 53 -102 113 -143 66 -46 134 -69 316 -107 187 -39 260 -64 298 -102 71
-70 73 -186 4 -249 -70 -63 -209 -94 -331 -74 -122 20 -182 64 -229 168 -32
70 -50 83 -109 83 -87 0 -129 -48 -109 -123 41 -155 179 -269 366 -302 267
-48 519 29 620 188 80 127 62 336 -37 435 -66 67 -151 99 -412 156 -240 53
-298 92 -298 200 0 67 32 115 97 147 42 21 62 24 168 24 104 0 125 -3 160 -22
51 -27 76 -55 108 -119 29 -57 40 -64 98 -64 51 0 97 24 110 57 26 70 -77 215
-194 273 -110 54 -271 73 -414 49z"/>
<path d="M7135 5854 c-11 -2 -45 -9 -75 -15 -153 -31 -320 -184 -320 -293 0
-35 37 -71 88 -86 52 -16 91 -3 117 38 11 17 32 51 47 75 18 29 45 53 80 73
51 28 58 29 178 29 115 0 129 -2 170 -25 66 -37 90 -90 90 -200 l0 -86 -167
-12 c-288 -20 -434 -63 -544 -160 -86 -76 -139 -218 -126 -341 23 -217 175
-341 415 -341 142 1 261 42 368 129 l62 50 7 -54 c9 -76 29 -97 96 -102 42 -3
61 0 87 16 36 23 40 46 21 116 -7 25 -14 213 -18 486 l-6 446 -35 69 c-67 130
-176 184 -390 190 -69 1 -134 1 -145 -2z m375 -782 c0 -107 -2 -123 -26 -170
-60 -122 -215 -212 -364 -212 -75 0 -124 15 -166 52 -50 44 -66 82 -66 154 0
147 93 232 294 268 107 20 135 22 241 24 l87 2 0 -118z"/>
<path d="M8550 5844 c-113 -31 -209 -102 -266 -199 -14 -25 -27 -45 -28 -45
-1 0 0 40 2 90 4 89 4 89 -27 121 -29 29 -36 31 -82 27 -34 -4 -58 -12 -72
-27 l-22 -22 0 -844 0 -844 22 -22 c14 -15 38 -23 72 -27 46 -4 53 -2 81 27
l31 31 -3 329 c-3 317 -2 329 14 297 27 -53 112 -140 165 -169 100 -54 240
-70 361 -42 154 37 269 130 340 275 52 106 72 179 80 300 25 352 -85 612 -301
710 -111 50 -256 64 -367 34z m242 -193 c140 -60 217 -224 218 -459 0 -225
-76 -396 -203 -460 -140 -70 -303 -44 -413 65 -89 90 -135 223 -135 394 0 253
104 423 290 476 63 18 184 10 243 -16z"/>
<path d="M5164 5837 c-101 -26 -192 -100 -240 -195 l-21 -42 5 80 c3 50 0 91
-7 109 -31 73 -163 66 -190 -10 -8 -22 -11 -209 -11 -596 0 -631 -1 -621 65
-643 49 -16 99 -5 125 27 19 25 20 38 20 388 0 202 4 386 10 415 16 82 54 155
109 209 67 65 119 84 215 79 83 -4 114 -19 153 -78 45 -65 47 -85 50 -540 2
-239 5 -445 8 -457 6 -27 53 -53 95 -53 38 0 85 23 96 47 5 10 11 200 14 423
l5 405 29 60 c35 71 110 149 169 175 51 23 162 27 210 6 44 -19 83 -62 104
-116 15 -40 18 -95 20 -490 2 -301 7 -452 15 -467 24 -48 129 -56 172 -13 21
20 21 29 24 458 2 268 -1 463 -8 504 -29 190 -113 286 -278 319 -81 15 -202 6
-275 -21 -66 -25 -155 -102 -193 -166 -28 -48 -38 -49 -47 -7 -14 71 -104 159
-186 184 -58 17 -200 20 -257 6z"/>
<path d="M2124 5829 c-44 -23 -45 -30 -42 -529 3 -432 5 -480 21 -525 61 -165
180 -250 367 -262 94 -6 191 12 262 48 57 29 135 105 169 164 l29 50 -6 -90
c-6 -86 -5 -92 18 -119 19 -23 35 -30 76 -34 47 -4 54 -2 82 26 l30 30 0 594
c0 661 4 627 -69 649 -43 13 -99 0 -123 -28 -10 -13 -14 -102 -18 -407 l-5
-391 -32 -68 c-67 -140 -182 -226 -317 -235 -125 -8 -195 29 -243 125 l-28 58
-5 452 c-5 447 -5 453 -27 474 -25 25 -105 35 -139 18z"/>
</g>
</svg>
